<svg width="753" height="563" viewBox="0 0 753 563" fill="none" xmlns="http://www.w3.org/2000/svg">
<path d="M302.44 389.651C315.857 399.377 329.305 408.619 342.711 417.359C346.892 418.077 351.093 418.771 355.316 419.443C450.771 434.615 539.791 435.01 608.277 423.384C622.823 399.685 633.836 373.582 640.578 345.808C645.583 325.192 648.235 303.655 648.235 281.5C648.235 263.662 646.516 246.227 643.234 229.349C618.927 104.354 508.916 10 376.877 10C323.322 10 273.39 25.5227 231.331 52.3168C193.279 76.5587 161.671 110.027 139.654 149.573C129.915 167.065 122.053 185.747 116.34 205.345C155.32 264.104 220.494 330.241 302.44 389.651Z" fill="white"/>
<path d="M116.34 205.346C109.297 229.508 105.521 255.064 105.521 281.5C105.521 303.134 108.049 324.176 112.827 344.345C171.689 375.384 252.016 401.784 342.711 417.359C329.305 408.619 315.857 399.378 302.44 389.651C220.494 330.242 155.32 264.104 116.34 205.346Z" fill="white"/>
<path d="M355.316 419.444C351.092 418.772 346.891 418.078 342.711 417.359C408.218 460.057 472.761 490.734 527.978 507.048C560.373 485.282 587.821 456.712 608.276 423.385C539.79 435.011 450.771 434.616 355.316 419.444Z" fill="white"/>
<path d="M342.711 417.36C252.015 401.784 171.688 375.384 112.827 344.346C141.166 463.99 248.633 553.002 376.876 553.002C432.811 553.002 484.791 536.069 527.978 507.049C472.761 490.734 408.218 460.058 342.711 417.36Z" fill="#616BFF"/>
<path d="M376.877 0C512.149 0 625.103 95.503 652.098 222.79C683.749 240.202 709.392 259.248 726.719 279.111C744.75 299.782 754.705 322.486 751.04 345.569C747.303 369.097 730.244 387.858 705.954 402.027C700.315 405.315 694.215 408.402 687.69 411.285C689.902 417.287 691.747 423.159 693.204 428.881C700.055 455.799 698.661 480.865 684.786 500.022C671.134 518.875 648.274 528.02 621.166 530.086C595.134 532.07 563.895 527.674 529.629 517.935C485.634 546.444 433.176 563 376.877 563C245.478 563 135.139 472.885 104.185 351.066C71.5204 333.441 45.032 314.101 27.1271 293.915C8.55613 272.977 -1.76127 249.935 1.96062 226.496C5.61274 203.497 22.0047 185.047 45.4113 171.007C54.9855 165.264 65.9377 160.125 78.0807 155.594C74.1587 145.912 71.148 136.533 69.1265 127.536C63.4365 102.213 65.3613 78.688 78.5288 60.5059C91.9226 42.0115 114.182 32.8575 140.602 30.5684C165.971 28.3701 196.387 32.3483 229.769 41.5001C272.58 15.1789 322.972 1.14508e-05 376.877 0ZM128.578 363.372C162.919 467.697 261.119 543 376.877 543C423.119 543 466.535 530.991 504.205 509.924C453.39 492.41 396.481 464.162 338.987 426.86C258.306 412.839 185.578 390.296 128.578 363.372ZM669.073 418.575C652.702 424.248 634.335 428.883 614.387 432.464C597.274 459.363 575.724 483.154 550.766 502.812C577.179 509.149 600.471 511.605 619.647 510.144C643.574 508.321 659.706 500.568 668.601 488.287C677.637 475.809 679.906 457.676 673.833 433.819C672.585 428.912 670.995 423.826 669.073 418.575ZM389.407 434.351C437.982 462.471 484.822 483.359 526.277 496.091C549.739 479.709 570.389 459.574 587.359 436.556C530.409 443.677 462.256 443.327 389.407 434.351ZM376.877 20C325.28 20 277.202 34.9494 236.7 60.752C200.043 84.1046 169.592 116.348 148.385 154.438C139.746 169.956 132.642 186.444 127.277 203.696C165.721 260.264 228.885 323.977 308.304 381.552C321.009 390.765 333.743 399.536 346.437 407.849C349.906 408.437 353.386 409.01 356.883 409.567C449.414 424.275 535.506 424.907 602.097 414.264C614.951 392.483 624.738 368.681 630.865 343.448C635.683 323.6 638.239 302.855 638.239 281.5C638.239 264.307 636.584 247.511 633.422 231.258C610.014 110.873 504.041 20 376.877 20ZM644.241 369.394C639.694 383.247 634.1 396.624 627.558 409.434C639.727 406.732 650.989 403.614 661.261 400.113C656.581 390.29 650.895 380.021 644.241 369.394ZM86.3684 173.852C74.7032 178.126 64.4328 182.916 55.6902 188.16C34.9888 200.577 24.067 214.743 21.7023 229.634C19.2925 244.809 25.5702 262.028 42.0783 280.64C55.3208 295.569 74.5225 310.627 98.8813 325.093C96.6724 310.88 95.5257 296.322 95.5257 281.5C95.5257 255.727 98.9899 230.748 105.483 207.012C98.1768 195.733 91.7714 184.647 86.3684 173.852ZM490.434 129.545C492.282 124.524 497.731 121.876 502.779 123.45L503.266 123.616L504.244 123.983C524.812 131.843 545.673 148.737 558.139 175.026C570.86 201.856 574.47 237.649 561.376 282.315C559.823 287.613 554.269 290.649 548.972 289.095C543.676 287.542 540.642 281.985 542.195 276.685C554.165 235.85 550.335 205.227 540.079 183.599C529.926 162.187 513.11 148.782 497.119 142.67L496.36 142.384L495.881 142.194C491.017 140.117 488.587 134.566 490.434 129.545ZM121.335 163.566C115.908 164.836 110.671 166.191 105.631 167.626C108.061 172.348 110.712 177.166 113.582 182.071C115.951 175.793 118.539 169.621 121.335 163.566ZM207.668 56.5811C182.636 50.9478 160.563 48.913 142.326 50.4931C119.126 52.5033 103.442 60.1919 94.7154 72.2413C86.1351 84.0893 83.6547 101.013 88.6288 123.149C90.4694 131.34 93.3011 140.076 97.0952 149.275C108.393 145.939 120.485 143.047 133.257 140.597C152.224 107.837 177.599 79.261 207.668 56.5811ZM115.515 281.5C115.515 300.771 117.598 319.544 121.545 337.61C168.403 361.737 228.814 383.018 297.237 398.225C297.016 398.066 296.797 397.908 296.576 397.748C222.205 343.831 161.229 284.215 120.762 229.106C117.323 246.027 115.515 263.547 115.515 281.5ZM658.228 281.5C658.228 302.884 655.843 323.723 651.321 343.76C662.892 360.607 672.531 377.075 679.939 392.845C685.695 390.29 691.017 387.588 695.887 384.748C717.501 372.141 728.88 357.665 731.298 342.433C733.672 327.486 727.621 310.563 711.659 292.263C698.792 277.514 680.082 262.616 656.287 248.269C657.57 259.17 658.228 270.26 658.228 281.5Z" fill="#0D0D58"/>
</svg>
